<svg width="16" height="12" viewBox="0 0 16 12" fill="none" xmlns="http://www.w3.org/2000/svg">
<path fill-rule="evenodd" clip-rule="evenodd" d="M15 5.00001H3.414L6.707 1.70701C7.098 1.31601 7.098 0.684006 6.707 0.293006C6.316 -0.0979941 5.684 -0.0979941 5.293 0.293006L0.292998 5.29301C-0.0980018 5.68401 -0.0980018 6.31601 0.292998 6.70701L5.293 11.707C5.488 11.902 5.744 12 6 12C6.256 12 6.512 11.902 6.707 11.707C7.098 11.316 7.098 10.684 6.707 10.293L3.414 7.00001H15C15.553 7.00001 16 6.55201 16 6.00001C16 5.44801 15.553 5.00001 15 5.00001" fill="#1E40AF"/>
</svg>
