<svg width="20" height="25" viewBox="0 0 20 25" fill="none" xmlns="http://www.w3.org/2000/svg">
<path fill-rule="evenodd" clip-rule="evenodd" d="M11.1781 24.5418L19.5113 16.7294C20.1629 16.1185 20.1629 15.131 19.5113 14.5201C18.8596 13.9092 17.8063 13.9092 17.1546 14.5201L11.6664 19.6653V1.56248C11.6664 0.698427 10.9214 0 9.99979 0C9.07814 0 8.33316 0.698427 8.33316 1.56248V19.6653L2.84494 14.5201C2.19329 13.9092 1.13998 13.9092 0.488323 14.5201C0.16333 14.8248 0 15.2248 0 15.6248C0 16.0247 0.16333 16.4247 0.488323 16.7294L8.82148 24.5418C9.47314 25.1527 10.5264 25.1527 11.1781 24.5418Z" fill="#F90A0A"/>
</svg>
