<svg width="20" height="25" viewBox="0 0 20 25" fill="none" xmlns="http://www.w3.org/2000/svg">
<path fill-rule="evenodd" clip-rule="evenodd" d="M11.6664 23.4375V5.33468L17.1546 10.4799C17.8063 11.0908 18.8596 11.0908 19.5113 10.4799C20.1629 9.86899 20.1629 8.8815 19.5113 8.27057L11.1781 0.458196C10.5264 -0.152732 9.47314 -0.152732 8.82148 0.458196L0.488323 8.27057C0.16333 8.57526 0 8.97525 0 9.37524C0 9.77524 0.16333 10.1752 0.488323 10.4799C1.13998 11.0908 2.19329 11.0908 2.84494 10.4799L8.33316 5.33468V23.4375C8.33316 24.3016 9.07814 25 9.99979 25C10.9214 25 11.6664 24.3016 11.6664 23.4375" fill="#06D406"/>
</svg>



