<svg width="586" height="605" viewBox="0 0 586 605" fill="none" xmlns="http://www.w3.org/2000/svg">
<path fill-rule="evenodd" clip-rule="evenodd" d="M282.798 4.58558C345.737 14.0785 391.744 63.1604 444.116 99.3353C494.555 134.175 571.282 152.793 584.14 212.732C597.497 274.999 522.508 321.096 504.81 382.27C490.643 431.237 525.18 492.926 491.904 531.541C458.636 570.145 395.588 553.709 346.211 566.312C299.102 578.337 256.901 606.376 208.345 603.916C151.921 601.059 90.3312 591.742 50.8306 551.351C10.8226 510.441 2.37437 448.17 0.114859 390.994C-1.99411 337.627 25.4751 290.574 38.478 238.773C54.9849 173.012 37.9046 92.3668 86.8512 45.4503C136.014 -1.67356 215.46 -5.57088 282.798 4.58558Z" fill="#E0FCFF"/>
<path d="M441.231 336.122H447.38C450.372 336.122 453.242 337.282 455.358 339.346C457.473 341.41 458.662 344.21 458.662 347.129C458.667 348.973 458.196 350.789 457.293 352.41C456.391 354.031 455.085 355.404 453.496 356.404L440.819 364.365L441.231 336.122Z" fill="#59A562"/>
<path d="M440.384 365.764L440.811 335.349H447.744C450.34 335.363 452.862 336.192 454.936 337.715C457.011 339.237 458.527 341.37 459.261 343.799C459.995 346.228 459.906 348.823 459.009 351.2C458.112 353.576 456.454 355.607 454.281 356.991L440.384 365.764ZM442.412 336.895L442.047 362.904L453.465 355.724C455.366 354.525 456.819 352.758 457.606 350.688C458.393 348.617 458.473 346.354 457.833 344.236C457.193 342.117 455.868 340.258 454.055 338.935C452.242 337.612 450.04 336.896 447.776 336.895H442.412Z" fill="#463E3B"/>
<path d="M442.285 339.987H446.389C448.383 339.987 450.296 340.76 451.706 342.135C453.116 343.511 453.908 345.377 453.908 347.322C453.911 348.552 453.597 349.763 452.995 350.843C452.393 351.924 451.522 352.839 450.462 353.505L442.024 358.808L442.285 339.987Z" fill="white"/>
<path d="M441.176 360.222L441.469 339.214H446.35C448.145 339.214 449.892 339.781 451.329 340.83C452.767 341.879 453.817 343.354 454.324 345.034C454.831 346.714 454.766 348.509 454.14 350.15C453.513 351.792 452.359 353.191 450.85 354.139L441.176 360.222ZM443.069 340.76L442.84 357.362L450.034 352.841C451.256 352.073 452.191 350.941 452.698 349.612C453.205 348.283 453.258 346.83 452.847 345.469C452.437 344.109 451.586 342.915 450.422 342.066C449.257 341.217 447.843 340.759 446.389 340.76H443.069Z" fill="#463E3B"/>
<path d="M436.477 382.498C451.135 371.29 447.174 327.62 447.174 327.62H396.862L378.639 362.402L382.601 383.016L436.477 382.498Z" fill="#76D98C"/>
<path d="M442.705 327.234H440.835C440.835 327.234 444.797 370.904 430.139 382.111L381.809 382.575V382.629L435.685 382.111C447.768 372.836 447.198 341.571 446.627 330.859C446.565 329.882 446.126 328.966 445.398 328.293C444.67 327.62 443.708 327.242 442.705 327.234V327.234Z" fill="#6DCC7E"/>
<path d="M436.969 382.335L435.994 381.122C447.76 372.125 447.134 340.559 446.659 331.091C446.614 330.155 446.201 329.272 445.506 328.626C444.811 327.979 443.887 327.619 442.927 327.62H396.862V326.074H442.927C444.293 326.075 445.606 326.588 446.594 327.507C447.583 328.427 448.17 329.682 448.235 331.013C448.853 343.38 448.996 373.138 436.969 382.335V382.335Z" fill="#463E3B"/>
<path d="M200.37 378.633H123.192L99.9773 355.994L101.102 354.897L123.842 377.087H200.37V378.633Z" fill="#463E3B"/>
<path d="M68.7922 381.725H517.594V390.227H68.7922V381.725Z" fill="#EA9178"/>
<path d="M69.4421 382.212H518.244V383.673H69.4421V382.212Z" fill="#A76C59"/>
<path opacity="0.2" d="M513.569 380.991V387.986H71.6683V380.991H68.2139V389.493H517.023V380.991H513.569Z" fill="white"/>
<path d="M518.386 391H68V380.952H518.386V391ZM69.5846 389.454H516.802V382.498H69.5846V389.454Z" fill="#463E3B"/>
<g opacity="0.15">
<path d="M117.178 258.83H68.0554V244.144H117.178V258.83ZM69.64 257.284H115.594V245.69H69.64V257.284Z" fill="#463E3B"/>
<path d="M164.717 258.83H115.594V244.144H164.717V258.83ZM117.178 257.284H163.132V245.69H117.178V257.284Z" fill="#463E3B"/>
<path d="M140.155 245.69H91.0322V231.004H140.155V245.69ZM92.6168 244.144H138.571V232.55H92.6168V244.144Z" fill="#463E3B"/>
</g>
<g opacity="0.15">
<path d="M415.085 260.376H365.962V245.69H415.085V260.376ZM367.547 258.83H413.501V247.236H367.547V258.83Z" fill="#463E3B"/>
<path d="M462.624 260.376H413.501V245.69H462.624V260.376ZM415.085 258.83H461.039V247.236H415.085V258.83Z" fill="#463E3B"/>
<path d="M438.062 247.236H388.939V232.55H438.062V247.236ZM390.524 245.69H436.478V234.096H390.524V245.69Z" fill="#463E3B"/>
</g>
<g opacity="0.15">
<path d="M471.339 305.978H422.216V291.293H471.339V305.978ZM423.801 304.432H469.754V292.838H423.801V304.432Z" fill="#463E3B"/>
<path d="M506.993 319.891H457.87V305.205H506.993V319.891ZM459.454 318.345H505.408V306.751H459.454V318.345Z" fill="#463E3B"/>
</g>
<g opacity="0.15">
<path d="M161.548 334.576H112.425V319.891H161.548V334.576ZM114.009 333.031H159.963V321.437H114.009V333.031Z" fill="#463E3B"/>
<path d="M197.201 348.489H148.078V333.804H197.201V348.489ZM149.663 346.943H195.617V335.349H149.663V346.943Z" fill="#463E3B"/>
</g>
<path d="M89.8122 326.739C100.94 326.739 109.96 317.939 109.96 307.083C109.96 296.228 100.94 287.428 89.8122 287.428C78.6845 287.428 69.6638 296.228 69.6638 307.083C69.6638 317.939 78.6845 326.739 89.8122 326.739Z" fill="#E8F0F9"/>
<path d="M89.8121 287.428C87.2249 287.423 84.661 287.906 82.2615 288.85C87.1995 287.626 92.4293 288.272 96.8989 290.658C101.369 293.044 104.746 296.992 106.353 301.709C107.959 306.425 107.675 311.561 105.557 316.081C103.439 320.602 99.6453 324.172 94.9384 326.074C99.648 324.834 103.737 321.969 106.446 318.011C109.155 314.053 110.301 309.271 109.671 304.552C109.041 299.833 106.678 295.497 103.021 292.348C99.363 289.199 94.6588 287.451 89.7805 287.428H89.8121Z" fill="#BCD9EA"/>
<path d="M75.2021 306.697C75.2028 301.885 77.0131 297.24 80.29 293.643C83.5669 290.046 88.0827 287.746 92.9814 287.181C90.1559 286.856 87.2919 287.118 84.5778 287.951C81.8638 288.783 79.3612 290.167 77.2349 292.011C75.1086 293.855 73.4068 296.117 72.2413 298.649C71.0759 301.181 70.4734 303.925 70.4734 306.701C70.4734 309.476 71.0759 312.22 72.2413 314.752C73.4068 317.284 75.1086 319.547 77.2349 321.391C79.3612 323.235 81.8638 324.619 84.5778 325.451C87.2919 326.284 90.1559 326.546 92.9814 326.221C88.0813 325.655 83.5645 323.355 80.2874 319.756C77.0103 316.157 75.2008 311.511 75.2021 306.697V306.697Z" fill="white"/>
<path d="M89.8123 327.52C85.672 327.513 81.6264 326.31 78.1869 324.062C74.7474 321.813 72.0683 318.621 70.4883 314.887C68.9082 311.154 68.498 307.048 69.3096 303.087C70.1211 299.126 72.118 295.489 75.0479 292.635C77.9778 289.781 81.7091 287.839 85.7703 287.053C89.8315 286.267 94.0403 286.674 97.8649 288.221C101.689 289.768 104.958 292.386 107.258 295.745C109.557 299.104 110.785 303.052 110.785 307.091C110.778 312.513 108.566 317.71 104.633 321.54C100.7 325.371 95.3696 327.522 89.8123 327.52ZM89.8123 288.201C85.9857 288.207 82.2469 289.319 79.0681 291.398C75.8894 293.476 73.4134 296.427 71.953 299.877C70.4926 303.327 70.1134 307.123 70.8632 310.783C71.6129 314.444 73.4581 317.806 76.1656 320.444C78.873 323.082 82.3213 324.878 86.0746 325.605C89.8279 326.331 93.7179 325.957 97.253 324.528C100.788 323.099 103.81 320.68 105.936 317.576C108.063 314.473 109.198 310.824 109.2 307.091C109.196 302.078 107.151 297.272 103.515 293.73C99.8797 290.188 94.9507 288.199 89.8123 288.201V288.201Z" fill="#463E3B"/>
<path d="M82.4833 296.44H97.141C97.868 296.44 98.5653 296.722 99.0794 297.224C99.5935 297.725 99.8823 298.405 99.8823 299.115V306.264C99.8823 308.872 98.8205 311.372 96.9305 313.216C95.0405 315.06 92.4771 316.096 89.8042 316.096C87.1313 316.096 84.5679 315.06 82.6779 313.216C80.7879 311.372 79.7261 308.872 79.7261 306.264V299.115C79.7261 298.762 79.7975 298.413 79.9363 298.088C80.075 297.762 80.2784 297.467 80.5346 297.218C80.7908 296.97 81.0949 296.773 81.4294 296.639C81.7638 296.506 82.122 296.438 82.4833 296.44V296.44Z" fill="#463E3B"/>
<path d="M89.0198 311.999H90.6044V344.764H89.0198V311.999Z" fill="#463E3B"/>
<path d="M93.0051 343.759H95.8099V344.145H93.0051V343.759Z" fill="#EA2424"/>
<path d="M92.5908 345.35L92.7634 345.002L95.2881 346.194L95.1156 346.542L92.5908 345.35Z" fill="#EA2424"/>
<path d="M91.4287 346.36L91.8029 346.233L92.7243 348.817L92.3502 348.944L91.4287 346.36Z" fill="#EA2424"/>
<path d="M95.5723 356.419H98.377V356.806H95.5723V356.419Z" fill="#EA2424"/>
<path d="M96.0928 354.373L96.2653 354.025L98.7901 355.217L98.6175 355.565L96.0928 354.373Z" fill="#EA2424"/>
<path d="M98.6702 351.735L99.0443 351.608L99.9658 354.192L99.5916 354.319L98.6702 351.735Z" fill="#EA2424"/>
<path d="M183.582 214.773H396.664C399.053 214.773 401.345 215.699 403.034 217.347C404.724 218.995 405.673 221.23 405.673 223.561V370.904H174.573V223.561C174.573 222.407 174.806 221.264 175.259 220.198C175.711 219.132 176.375 218.163 177.212 217.347C178.048 216.531 179.041 215.884 180.134 215.442C181.227 215 182.399 214.773 183.582 214.773V214.773Z" fill="#E8F0F9"/>
<path d="M181.355 362.239H398.447V364.365H181.355V362.239Z" fill="#BCD9EA"/>
<path d="M396.664 214.773H183.582C182.399 214.773 181.227 215 180.134 215.442C179.041 215.884 178.048 216.531 177.212 217.347C176.375 218.163 175.711 219.132 175.259 220.198C174.806 221.264 174.573 222.407 174.573 223.561V228.199C174.573 227.045 174.806 225.902 175.259 224.836C175.711 223.769 176.375 222.801 177.212 221.984C178.048 221.168 179.041 220.521 180.134 220.079C181.227 219.638 182.399 219.41 183.582 219.41H396.664C399.053 219.41 401.345 220.336 403.034 221.984C404.724 223.633 405.673 225.868 405.673 228.199V223.561C405.673 221.23 404.724 218.995 403.034 217.347C401.345 215.699 399.053 214.773 396.664 214.773V214.773Z" fill="white"/>
<path d="M406.315 371.677H173.654V223.561C173.656 221.026 174.689 218.595 176.527 216.803C178.365 215.01 180.856 214.002 183.455 214H396.538C399.132 214.008 401.618 215.019 403.45 216.811C405.283 218.603 406.313 221.03 406.315 223.561V371.677ZM175.223 370.131H404.73V223.561C404.728 221.44 403.865 219.406 402.33 217.904C400.794 216.402 398.712 215.554 396.538 215.546H183.455C181.276 215.548 179.188 216.393 177.647 217.896C176.107 219.398 175.241 221.436 175.239 223.561L175.223 370.131Z" fill="#4267B2"/>
<path d="M181.577 228.686H397.876V362.402H181.577V228.686Z" fill="white"/>
<path opacity="0.1" d="M182.369 228.686H397.877V232.55H182.369V228.686Z" fill="#463E3B"/>
<path d="M398.391 363.175H181.577V227.913H398.391V363.175ZM183.146 361.629H396.807V229.459H183.162L183.146 361.629Z" fill="#463E3B"/>
<path d="M142.532 370.904H436.874V375.279C436.874 377.193 436.094 379.03 434.706 380.383C433.319 381.737 431.436 382.498 429.474 382.498H151.834C149.367 382.498 147.001 381.542 145.257 379.84C143.512 378.138 142.532 375.83 142.532 373.424V370.904V370.904Z" fill="#E8F0F9"/>
<path d="M143.38 370.904H437.714V375.541H143.38V370.904Z" fill="#BCD9EA"/>
<path d="M427.929 383.271H152.032C149.376 383.269 146.83 382.239 144.953 380.407C143.075 378.575 142.019 376.091 142.017 373.501V370.131H437.943V373.501C437.941 376.091 436.885 378.575 435.008 380.407C433.13 382.239 430.584 383.269 427.929 383.271V383.271ZM143.61 371.677V373.501C143.612 375.68 144.499 377.77 146.078 379.311C147.657 380.853 149.798 381.721 152.032 381.725H427.929C430.164 381.723 432.307 380.856 433.887 379.314C435.468 377.772 436.357 375.681 436.359 373.501V371.677H143.61Z" fill="#463E3B"/>
<path d="M287.944 223.19C288.662 223.19 289.243 222.623 289.243 221.922C289.243 221.222 288.662 220.655 287.944 220.655C287.226 220.655 286.645 221.222 286.645 221.922C286.645 222.623 287.226 223.19 287.944 223.19Z" fill="#FF4E00"/>
<path d="M287.944 223.577C287.609 223.577 287.281 223.48 287.002 223.298C286.723 223.116 286.506 222.858 286.378 222.555C286.249 222.253 286.216 221.921 286.281 221.6C286.347 221.279 286.508 220.984 286.745 220.753C286.982 220.522 287.284 220.364 287.613 220.3C287.942 220.236 288.283 220.269 288.593 220.394C288.903 220.52 289.168 220.732 289.354 221.004C289.54 221.276 289.64 221.595 289.64 221.922C289.64 222.361 289.461 222.782 289.143 223.092C288.825 223.402 288.394 223.577 287.944 223.577V223.577ZM287.944 221.041C287.765 221.041 287.591 221.093 287.442 221.19C287.294 221.287 287.178 221.424 287.11 221.585C287.041 221.746 287.023 221.923 287.058 222.094C287.093 222.265 287.179 222.422 287.305 222.546C287.432 222.669 287.593 222.753 287.768 222.787C287.943 222.821 288.125 222.803 288.29 222.737C288.455 222.67 288.596 222.557 288.695 222.412C288.794 222.267 288.847 222.097 288.847 221.922C288.847 221.689 288.752 221.465 288.583 221.299C288.413 221.134 288.184 221.041 287.944 221.041Z" fill="#463E3B"/>
<path d="M306.365 376.577H274.198C270.135 376.588 266.152 375.47 262.717 373.354L260.34 371.878L261.204 370.579L263.581 372.056C266.757 374.012 270.44 375.045 274.198 375.031H306.365C310.95 375.065 315.397 373.509 318.915 370.641L319.953 371.808C316.159 374.94 311.335 376.633 306.365 376.577V376.577Z" fill="#463E3B"/>
<path d="M238.49 299.703V307.875H233.226V317.986H222.561L222.491 307.875H202.753V300.603L216.051 269.992L225.331 273.455L214.042 299.703H222.63L223.807 288.622H233.226V299.703H238.49ZM260.266 270.2C265.991 270.2 270.354 272.3 273.355 276.502C276.403 280.703 277.926 286.752 277.926 294.647C277.926 302.496 276.403 308.544 273.355 312.792C270.354 317.04 265.991 319.164 260.266 319.164C254.541 319.164 250.154 317.04 247.107 312.792C244.106 308.544 242.605 302.496 242.605 294.647C242.605 286.752 244.106 280.703 247.107 276.502C250.154 272.3 254.541 270.2 260.266 270.2ZM260.266 278.303C258.696 278.303 257.449 278.81 256.526 279.826C255.603 280.842 254.91 282.527 254.448 284.882C254.033 287.237 253.825 290.492 253.825 294.647C253.825 298.802 254.033 302.081 254.448 304.481C254.91 306.836 255.603 308.521 256.526 309.537C257.449 310.553 258.696 311.061 260.266 311.061C261.836 311.061 263.082 310.576 264.006 309.606C264.929 308.591 265.599 306.905 266.014 304.551C266.476 302.15 266.707 298.849 266.707 294.647C266.707 290.445 266.476 287.167 266.014 284.813C265.599 282.412 264.929 280.727 264.006 279.757C263.082 278.787 261.836 278.303 260.266 278.303ZM318.161 299.703V307.875H312.898V317.986H302.232L302.163 307.875H282.425V300.603L295.722 269.992L305.003 273.455L293.714 299.703H302.302L303.479 288.622H312.898V299.703H318.161ZM327.956 306.628C329.665 306.628 331.119 307.252 332.319 308.498C333.566 309.699 334.189 311.153 334.189 312.861C334.189 314.616 333.566 316.116 332.319 317.363C331.119 318.563 329.665 319.164 327.956 319.164C326.202 319.164 324.701 318.563 323.455 317.363C322.254 316.116 321.654 314.616 321.654 312.861C321.654 311.153 322.254 309.699 323.455 308.498C324.701 307.252 326.202 306.628 327.956 306.628ZM344.594 306.628C346.302 306.628 347.757 307.252 348.957 308.498C350.204 309.699 350.827 311.153 350.827 312.861C350.827 314.616 350.204 316.116 348.957 317.363C347.757 318.563 346.302 319.164 344.594 319.164C342.839 319.164 341.339 318.563 340.092 317.363C338.892 316.116 338.292 314.616 338.292 312.861C338.292 311.153 338.892 309.699 340.092 308.498C341.339 307.252 342.839 306.628 344.594 306.628ZM361.232 306.628C362.94 306.628 364.394 307.252 365.595 308.498C366.841 309.699 367.465 311.153 367.465 312.861C367.465 314.616 366.841 316.116 365.595 317.363C364.394 318.563 362.94 319.164 361.232 319.164C359.477 319.164 357.977 318.563 356.73 317.363C355.53 316.116 354.929 314.616 354.929 312.861C354.929 311.153 355.53 309.699 356.73 308.498C357.977 307.252 359.477 306.628 361.232 306.628Z" fill="#939393"/>
<path d="M150.455 242.985C150.771 242.985 151.073 242.863 151.296 242.645C151.519 242.428 151.644 242.133 151.644 241.825C151.644 241.518 151.519 241.223 151.296 241.006C151.073 240.788 150.771 240.666 150.455 240.666C150.14 240.666 149.838 240.788 149.615 241.006C149.392 241.223 149.267 241.518 149.267 241.825C149.267 242.133 149.392 242.428 149.615 242.645C149.838 242.863 150.14 242.985 150.455 242.985Z" fill="#E8F0F9"/>
<path opacity="0.35" d="M421.329 321.854C419.418 320.515 417.764 318.859 416.44 316.961C415.796 315.942 415.391 314.797 415.252 313.607C415.091 312.374 415.294 311.122 415.838 309.997C416.126 309.419 416.518 308.896 416.995 308.452C417.447 308.052 417.929 307.685 418.437 307.354C419.372 306.712 420.299 306.079 420.52 305.313C420.742 304.548 420.394 303.721 419.728 302.832C419.014 301.902 418.373 300.92 417.811 299.895C415.611 295.676 415.048 290.822 416.226 286.23C416.792 283.964 417.825 281.834 419.261 279.969C420.677 278.122 422.564 276.67 424.736 275.757C423.748 276.333 422.833 277.02 422.01 277.805C421.208 278.591 420.499 279.463 419.895 280.402C418.682 282.268 417.839 284.339 417.407 286.508C416.536 290.818 417.178 295.289 419.229 299.2C419.749 300.173 420.345 301.106 421.012 301.99C421.392 302.503 421.699 303.065 421.923 303.659C422.174 304.349 422.174 305.103 421.923 305.793C421.67 306.44 421.243 307.008 420.687 307.439C420.216 307.814 419.721 308.16 419.205 308.475C418.274 308.962 417.488 309.675 416.923 310.546C416.434 311.462 416.212 312.491 416.282 313.522C416.324 314.599 416.608 315.655 417.114 316.614C418.072 318.585 419.784 320.208 421.329 321.854V321.854Z" fill="#141414"/>
<path opacity="0.35" d="M427.659 317.031C429.244 315.269 429.481 312.935 429.18 310.848C428.879 308.761 427.897 306.651 427.073 304.486C426.648 303.378 426.314 302.238 426.075 301.078C425.857 299.9 425.788 298.701 425.869 297.507C426.004 295.145 426.772 292.858 428.095 290.875C427.379 293.02 427.044 295.268 427.105 297.522C427.206 299.731 427.696 301.907 428.554 303.953C429.347 306.071 430.29 308.281 430.401 310.739C430.468 311.95 430.285 313.162 429.862 314.303C429.448 315.42 428.675 316.376 427.659 317.031Z" fill="#141414"/>
<path opacity="0.35" d="M434.79 299.254C436.375 297.491 436.612 295.157 436.311 293.07C436.01 290.983 435.028 288.873 434.204 286.709C433.778 285.601 433.445 284.461 433.205 283.301C432.988 282.123 432.919 280.924 432.999 279.73C433.135 277.367 433.903 275.081 435.226 273.098C434.51 275.242 434.175 277.49 434.235 279.745C434.337 281.954 434.827 284.129 435.685 286.176C436.478 288.294 437.42 290.504 437.531 292.962C437.599 294.173 437.416 295.385 436.993 296.525C436.579 297.642 435.806 298.599 434.79 299.254V299.254Z" fill="#141414"/>
</svg>

