<svg width="18" height="20" viewBox="0 0 18 20" fill="none" xmlns="http://www.w3.org/2000/svg">
<path fill-rule="evenodd" clip-rule="evenodd" d="M7.24055 9L8.05617 11.3304C8.23862 11.8516 8.8091 12.1263 9.33038 11.9439C9.85166 11.7614 10.1263 11.1909 9.94389 10.6696L6.60906 1.14158C6.36975 0.45783 5.72445 0 5.00003 0C4.27561 0 3.63031 0.457829 3.391 1.14158L0.05617 10.6696C-0.126277 11.1909 0.148399 11.7614 0.669678 11.9439C1.19096 12.1263 1.76144 11.8516 1.94389 11.3304L2.75951 9H7.24055ZM6.54055 7L5.00003 2.59852L3.45951 7H6.54055Z" fill="#1E40AF"/>
<path fill-rule="evenodd" clip-rule="evenodd" d="M14.5 5C15.1086 5 15.6808 5.15531 16.1794 5.42845C16.3601 5.16945 16.6603 5 17 5C17.5523 5 18 5.44772 18 6V11C18 11.5523 17.5523 12 17 12C16.6603 12 16.3601 11.8306 16.1794 11.5716C15.6808 11.8447 15.1086 12 14.5 12C12.567 12 11 10.433 11 8.5C11 6.567 12.567 5 14.5 5ZM14.5 10C15.3285 10 16 9.32843 16 8.5C16 7.67157 15.3285 7 14.5 7C13.6716 7 13 7.67157 13 8.5C13 9.32843 13.6716 10 14.5 10Z" fill="#1E40AF"/>
<path d="M1.00003 14C0.447744 14 2.83542e-05 14.4477 2.83542e-05 15C2.83542e-05 15.5523 0.447744 16 1.00003 16H17C17.5523 16 18 15.5523 18 15C18 14.4477 17.5523 14 17 14H1.00003Z" fill="#1E40AF"/>
<path d="M1.00003 18C0.447744 18 2.83542e-05 18.4477 2.83542e-05 19C2.83542e-05 19.5523 0.447744 20 1.00003 20H13C13.5523 20 14 19.5523 14 19C14 18.4477 13.5523 18 13 18H1.00003Z" fill="#1E40AF"/>
</svg>



