<svg width="20" height="20" viewBox="0 0 20 20" fill="none" xmlns="http://www.w3.org/2000/svg">
<path d="M10 0C10.5523 0 11 0.447715 11 1V2C11 2.55228 10.5523 3 10 3C9.44771 3 9 2.55228 9 2V1C9 0.447715 9.44771 0 10 0Z" fill="#1E40AF"/>
<path d="M12 17V18.5C12 19.3284 11.3284 20 10.5 20H9.5C8.67157 20 8 19.3284 8 18.5V17H12Z" fill="#1E40AF"/>
<path d="M18 9C17.4477 9 17 9.44771 17 10C17 10.5523 17.4477 11 18 11H19C19.5523 11 20 10.5523 20 10C20 9.44771 19.5523 9 19 9H18Z" fill="#1E40AF"/>
<path d="M0 10C0 9.44771 0.447715 9 1 9H2C2.55228 9 3 9.44771 3 10C3 10.5523 2.55228 11 2 11H1C0.447715 11 0 10.5523 0 10Z" fill="#1E40AF"/>
<path d="M4.34315 2.92894C3.95262 2.53842 3.31946 2.53842 2.92893 2.92894C2.53841 3.31946 2.53841 3.95263 2.92893 4.34315L3.63604 5.05026C4.02656 5.44078 4.65973 5.44079 5.05025 5.05026C5.44078 4.65974 5.44078 4.02657 5.05025 3.63605L4.34315 2.92894Z" fill="#1E40AF"/>
<path d="M14.9497 5.05025C14.5592 4.65972 14.5592 4.02656 14.9497 3.63603L15.6569 2.92893C16.0474 2.5384 16.6805 2.5384 17.0711 2.92893C17.4616 3.31945 17.4616 3.95262 17.0711 4.34314L16.364 5.05025C15.9734 5.44077 15.3403 5.44077 14.9497 5.05025Z" fill="#1E40AF"/>
<path d="M13.2681 11.3071C12.6497 12.1814 12 13.1244 12 14.1953V15H8V14.1953C8 13.1244 7.3503 12.1814 6.73194 11.3071C6.2709 10.6552 6 9.85921 6 9C6 6.79083 7.79086 5 10 5C12.2091 5 14 6.79083 14 9C14 9.85921 13.7291 10.6552 13.2681 11.3071Z" fill="#1E40AF"/>
</svg>
