<svg width="18" height="20" viewBox="0 0 18 20" fill="none" xmlns="http://www.w3.org/2000/svg">
<path d="M11.2928 10.2928L7.99985 13.5858L6.70685 12.2928C6.614 12.2 6.50378 12.1264 6.38247 12.0761C6.26117 12.0259 6.13115 12 5.99985 12C5.86855 12 5.73853 12.0259 5.61722 12.0761C5.49592 12.1264 5.38569 12.2 5.29285 12.2928C5.20001 12.3857 5.12636 12.4959 5.07611 12.6172C5.02586 12.7385 5 12.8685 5 12.9998C5 13.1312 5.02586 13.2612 5.07611 13.3825C5.12636 13.5038 5.20001 13.614 5.29285 13.7069L7.29285 15.7069C7.3855 15.8 7.49566 15.874 7.617 15.9244C7.73833 15.9749 7.86844 16.0009 7.99985 16.0009C8.13126 16.0009 8.26137 15.9749 8.3827 15.9244C8.50403 15.874 8.6142 15.8 8.70685 15.7069L12.7069 11.7068C12.7997 11.614 12.8733 11.5038 12.9236 11.3825C12.9738 11.2612 12.9997 11.1312 12.9997 10.9998C12.9997 10.8685 12.9738 10.7385 12.9236 10.6172C12.8733 10.4959 12.7997 10.3857 12.7069 10.2928C12.614 10.2 12.5038 10.1264 12.3825 10.0761C12.2612 10.0259 12.1312 10 11.9998 10C11.8685 10 11.7385 10.0259 11.6172 10.0761C11.4959 10.1264 11.3857 10.2 11.2928 10.2928Z" fill="#1E40AF"/>
<path fill-rule="evenodd" clip-rule="evenodd" d="M14 2H16.5C17.3 2 18 2.7 18 3.5V18.5C18 19.3 17.3 20 16.5 20H1.5C0.7 20 0 19.3 0 18.5V3.5C0 2.7 0.7 2 1.5 2H3V1C3 0.447715 3.44772 0 4 0C4.55228 0 5 0.447715 5 1V2H12V1C12 0.447715 12.4477 0 13 0C13.5523 0 14 0.447715 14 1V2ZM16 18H2V8H16V18Z" fill="#1E40AF"/>
</svg>
