<svg width="19" height="19" viewBox="0 0 19 19" fill="none" xmlns="http://www.w3.org/2000/svg">
<path d="M17 9C16.4477 9 16 9.44771 16 10V17H2V3H9C9.55229 3 10 2.55228 10 2C10 1.44772 9.55228 1 9 1H1.5C0.671573 1 -1.37161e-09 1.67157 0 2.5L2.48356e-08 17.5C2.62072e-08 18.3284 0.671573 19 1.5 19H16.5C17.3284 19 18 18.3284 18 17.5V10C18 9.44772 17.5523 9 17 9Z" fill="#1E40AF"/>
<path d="M14.53 2.02887L16.9686 4.46806L9.23028 12.2068L6.00004 12.9986L6.79163 9.76762L14.53 2.02887Z" fill="#1E40AF"/>
<path d="M18.0884 3.3507L15.6497 0.911514L16.0559 0.505252C16.7294 -0.168417 17.8215 -0.168418 18.4951 0.505251C19.1684 1.17871 19.1684 2.27045 18.4951 2.9439L18.0884 3.3507Z" fill="#1E40AF"/>
</svg>
