<svg width="18" height="18" viewBox="0 0 18 18" fill="none" xmlns="http://www.w3.org/2000/svg">
<path fill-rule="evenodd" clip-rule="evenodd" d="M10 0H16C17.1046 0 18 0.895431 18 2V8C18.0001 8.76792 17.7072 9.53587 17.1213 10.1218L10.1213 17.1218C8.94974 18.2933 7.05025 18.2933 5.87868 17.1218L0.87868 12.1218C-0.292893 10.9502 -0.292893 9.0507 0.87868 7.87913L7.87868 0.879135C8.46447 0.293348 9.23223 0 10 0ZM13 7C14.1046 7 15 6.10457 15 5C15 3.89543 14.1046 3 13 3C11.8954 3 11 3.89543 11 5C11 6.10457 11.8954 7 13 7Z" fill="#1E40AF"/>
</svg>

