<svg width="20" height="20" viewBox="0 0 17 17" fill="none" xmlns="http://www.w3.org/2000/svg">
<path d="M4.72538 12.7277C4.91925 12.5315 5.0157 12.2749 5.01412 12.0189C5.01253 11.7629 4.9129 11.5075 4.71661 11.3137L3.41507 10.0288L10.0038 9.98793C10.557 9.9845 11.0014 9.53374 10.998 8.98175C10.9945 8.42976 10.5446 7.98454 9.99135 7.98797L3.40266 8.02883L4.68817 6.72784C5.07691 6.33442 5.07299 5.70243 4.6794 5.31386C4.28582 4.9253 3.65356 4.92922 3.26483 5.32264L0.282205 8.34119C0.195709 8.42873 0.134322 8.53211 0.0859717 8.64041C0.0738339 8.66773 0.0655582 8.69502 0.0570765 8.72299C0.0559056 8.72685 0.0547307 8.73073 0.0535412 8.73462C0.0250503 8.8188 0.00957086 8.90389 0.00511455 8.99192C0.00458599 9.00098 0.00388548 9.00988 0.00318859 9.01873C0.00150095 9.04015 -0.000165434 9.06131 0.000683054 9.08395C0.00435405 9.19193 0.0230312 9.29982 0.0646929 9.40356C0.0662183 9.40755 0.0669949 9.4118 0.0677716 9.41604C0.0685483 9.42029 0.0693249 9.42453 0.0708504 9.42852L0.0718756 9.43252C0.119589 9.54422 0.189213 9.63979 0.269779 9.72529C0.274309 9.72977 0.277342 9.735 0.280376 9.74023C0.28341 9.74546 0.286444 9.75069 0.290974 9.75516L3.3108 12.7365C3.70439 13.1251 4.33665 13.1211 4.72538 12.7277Z" fill="#FFF6F6"/>
<path d="M7.04005 15.5064C7.04518 16.3348 7.72091 17.0022 8.54932 16.9971L14.5492 16.9599C15.3776 16.9547 16.045 16.279 16.0399 15.4506L15.9593 2.45086C15.9541 1.62245 15.2784 0.955055 14.45 0.960193L8.4501 0.997402C7.62168 1.00254 6.95429 1.67826 6.95943 2.50668L6.98113 6.00661L8.98109 5.99421L8.96249 2.99426L13.9624 2.96326L14.0368 14.963L9.03691 14.994L9.0183 11.9941L7.01834 12.0065L7.04005 15.5064Z" fill="#FFF6F6"/>
</svg>
