<svg width="18" height="18" viewBox="0 0 18 18" fill="none" xmlns="http://www.w3.org/2000/svg">
<path d="M0.282454 12.4685C-0.0293958 12.3134 -0.0968412 11.9001 0.149697 11.655L1.24297 10.5678C1.53036 10.282 1.92014 10.1215 2.32656 10.1215H4.75668L6.72126 8.16789L0.328202 5.34234C0.000625833 5.19756 -0.0790099 4.77105 0.174469 4.51899L2.14572 2.55878C2.50127 2.20522 3.00863 2.0476 3.50335 2.13701L11.3584 3.55671L14.3385 0.593315C14.7483 0.205904 15.2941 -0.00694289 15.8596 0.000172836C16.425 0.00728856 16.9652 0.233803 17.365 0.631404C17.7649 1.029 17.9927 1.56622 17.9998 2.12847C18.007 2.69071 17.7929 3.23349 17.4033 3.64103L14.3896 6.63794L15.8317 15.245C15.9308 15.8365 15.6719 16.4308 15.1701 16.7634L13.4337 17.9145C13.1703 18.0892 12.8122 17.9859 12.6836 17.6982L9.78613 11.2156L7.82155 13.1692V15.5857C7.82155 15.9898 7.66009 16.3774 7.3727 16.6632L6.27943 17.7504C6.0329 17.9955 5.61728 17.9285 5.46135 17.6184L3.73505 14.1851L0.282454 12.4685Z" fill="#5C5F62"/>
</svg>
