<svg width="16" height="20" viewBox="0 0 16 20" fill="none" xmlns="http://www.w3.org/2000/svg">
<path d="M8.00003 0C8.55227 0 9.00003 0.447716 9.00003 1V3L8.99954 3.0317L8.99856 3.05341L8.99661 3.0824C11.836 3.55709 14 6.02583 14 9C14 12.0933 14.625 13.312 15.5987 15.2103L15.6333 15.2781C15.803 15.6088 15.5628 16 15.1909 16H0.80911C0.437284 16 0.19705 15.6088 0.366728 15.2781L0.401396 15.2103C1.37503 13.312 2.00003 12.0933 2.00003 9C2.00003 6.02583 4.16409 3.55709 7.00345 3.0824L7.00125 3.04284C7.00052 3.02863 7.00003 3.01435 7.00003 3V1C7.00003 0.447716 7.44778 0 8.00003 0Z" fill="white"/>
<path d="M10 18C10 19.1046 9.10452 20 8.00003 20C6.89554 20 6.00003 19.1046 6.00003 18H10Z" fill="white"/>
</svg>
