<svg width="16" height="16" viewBox="0 0 16 16" fill="none" xmlns="http://www.w3.org/2000/svg">
<path d="M0 3C0 2.44772 0.447715 2 1 2H3C3.55228 2 4 2.44772 4 3C4 3.55228 3.55228 4 3 4H1C0.447715 4 0 3.55228 0 3Z" fill="#5C5F62"/>
<path d="M6 3C6 2.44772 6.44772 2 7 2H15C15.5523 2 16 2.44772 16 3C16 3.55228 15.5523 4 15 4H7C6.44772 4 6 3.55228 6 3Z" fill="#5C5F62"/>
<path d="M6 13C6 12.4477 6.44772 12 7 12H15C15.5523 12 16 12.4477 16 13C16 13.5523 15.5523 14 15 14H7C6.44772 14 6 13.5523 6 13Z" fill="#5C5F62"/>
<path d="M0 13C0 12.4477 0.447715 12 1 12H3C3.55228 12 4 12.4477 4 13C4 13.5523 3.55228 14 3 14H1C0.447715 14 0 13.5523 0 13Z" fill="#5C5F62"/>
<path d="M12 8C12 7.44772 12.4477 7 13 7H15C15.5523 7 16 7.44772 16 8C16 8.55228 15.5523 9 15 9H13C12.4477 9 12 8.55228 12 8Z" fill="#5C5F62"/>
<path d="M0 8C0 7.44772 0.447715 7 1 7H9C9.55229 7 10 7.44772 10 8C10 8.55228 9.55229 9 9 9H1C0.447715 9 0 8.55228 0 8Z" fill="#5C5F62"/>
<path fill-rule="evenodd" clip-rule="evenodd" d="M5 6C6.65685 6 8 4.65685 8 3C8 1.34315 6.65685 0 5 0C3.34315 0 2 1.34315 2 3C2 4.65685 3.34315 6 5 6ZM5 4C5.55228 4 6 3.55228 6 3C6 2.44772 5.55228 2 5 2C4.44772 2 4 2.44772 4 3C4 3.55228 4.44772 4 5 4Z" fill="#5C5F62"/>
<path fill-rule="evenodd" clip-rule="evenodd" d="M11 11C12.6569 11 14 9.65685 14 8C14 6.34315 12.6569 5 11 5C9.34315 5 8 6.34315 8 8C8 9.65685 9.34315 11 11 11ZM11 9C11.5523 9 12 8.55228 12 8C12 7.44772 11.5523 7 11 7C10.4477 7 10 7.44772 10 8C10 8.55228 10.4477 9 11 9Z" fill="#5C5F62"/>
<path fill-rule="evenodd" clip-rule="evenodd" d="M11 11C12.6569 11 14 9.65685 14 8C14 6.34315 12.6569 5 11 5C9.34315 5 8 6.34315 8 8C8 9.65685 9.34315 11 11 11ZM11 9C11.5523 9 12 8.55228 12 8C12 7.44772 11.5523 7 11 7C10.4477 7 10 7.44772 10 8C10 8.55228 10.4477 9 11 9Z" fill="#5C5F62"/>
<path fill-rule="evenodd" clip-rule="evenodd" d="M5 16C6.65685 16 8 14.6569 8 13C8 11.3431 6.65685 10 5 10C3.34315 10 2 11.3431 2 13C2 14.6569 3.34315 16 5 16ZM5 14C5.55228 14 6 13.5523 6 13C6 12.4477 5.55228 12 5 12C4.44772 12 4 12.4477 4 13C4 13.5523 4.44772 14 5 14Z" fill="#5C5F62"/>
</svg>
