<svg width="20" height="20" viewBox="0 0 14 14" fill="none" xmlns="http://www.w3.org/2000/svg">
<path d="M7.27475 6.03847C6.92555 5.9387 6.54972 6.03609 6.29292 6.29289C6.03612 6.54969 5.93873 6.92552 6.0385 7.27472L7.75279 13.2747C7.86903 13.6816 8.22877 13.9712 8.65106 13.998C9.07335 14.0248 9.46677 13.7828 9.63346 13.3939L10.7616 10.7616L13.3939 9.63342C13.7829 9.46674 14.0248 9.07332 13.998 8.65103C13.9713 8.22874 13.6816 7.869 13.2747 7.75276L7.27475 6.03847Z" fill="white"/>
<path fill-rule="evenodd" clip-rule="evenodd" d="M7 0C7.55228 0 8 0.447715 8 1V3C8 3.55228 7.55228 4 7 4C6.44772 4 6 3.55228 6 3V1C6 0.447715 6.44772 0 7 0Z" fill="white"/>
<path fill-rule="evenodd" clip-rule="evenodd" d="M2.05025 2.05025C2.44078 1.65973 3.07394 1.65973 3.46447 2.05025L4.87868 3.46447C5.2692 3.85499 5.2692 4.48816 4.87868 4.87868C4.48815 5.2692 3.85499 5.2692 3.46447 4.87868L2.05025 3.46447C1.65973 3.07394 1.65973 2.44078 2.05025 2.05025Z" fill="white"/>
<path fill-rule="evenodd" clip-rule="evenodd" d="M11.9497 2.05025C12.3403 2.44078 12.3403 3.07394 11.9497 3.46447L10.5355 4.87868C10.145 5.2692 9.51184 5.2692 9.12132 4.87868C8.7308 4.48816 8.7308 3.85499 9.12132 3.46447L10.5355 2.05025C10.9261 1.65973 11.5592 1.65973 11.9497 2.05025Z" fill="white"/>
<path fill-rule="evenodd" clip-rule="evenodd" d="M4.87868 9.12132C5.2692 9.51185 5.2692 10.145 4.87868 10.5355L3.46447 11.9497C3.07394 12.3403 2.44078 12.3403 2.05025 11.9497C1.65973 11.5592 1.65973 10.9261 2.05025 10.5355L3.46447 9.12132C3.85499 8.7308 4.48815 8.7308 4.87868 9.12132Z" fill="white"/>
<path fill-rule="evenodd" clip-rule="evenodd" d="M4 7C4 7.55228 3.55228 8 3 8H1C0.447715 8 -2.41411e-08 7.55228 0 7C2.41411e-08 6.44772 0.447715 6 1 6H3C3.55228 6 4 6.44772 4 7Z" fill="white"/>
</svg>


