<svg width="20" height="19" viewBox="0 0 20 19" fill="none" xmlns="http://www.w3.org/2000/svg">
<path d="M7 4H12V6H7V4Z" fill="#5C5F62"/>
<path d="M12 8H7V10H12V8Z" fill="#5C5F62"/>
<path fill-rule="evenodd" clip-rule="evenodd" d="M16 16C16 17.6569 14.6569 19 13 19H3C1.34315 19 0 17.6569 0 16V14.5C0 13.6716 0.671573 13 1.5 13H3V3C3 1.34315 4.34315 0 6 0H17C18.6569 0 20 1.34315 20 3C20 4.65685 18.6569 6 17 6H16V16ZM5 3C5 2.44772 5.44772 2 6 2H14.1707C14.0602 2.31278 14 2.64936 14 3V16C14 16.5523 13.5523 17 13 17C12.4477 17 12 16.5523 12 16V13H5V3ZM17 2C16.4477 2 16 2.44772 16 3V4H17C17.5523 4 18 3.55228 18 3C18 2.44772 17.5523 2 17 2ZM10 16C10 16.3506 10.0602 16.6872 10.1707 17H3C2.44772 17 2 16.5523 2 16V15H10V16Z" fill="#5C5F62"/>
</svg>
