<svg width="16" height="20" viewBox="0 0 16 20" fill="none" xmlns="http://www.w3.org/2000/svg">
<path fill-rule="evenodd" clip-rule="evenodd" d="M12 4H15C15.5523 4 16 4.44772 16 5L16 6H0L2.64096e-05 5C2.64096e-05 4.44772 0.447742 4 1.00003 4H4.00003V1.5C4.00003 0.671573 4.6716 0 5.50003 0H10.5C11.3285 0 12 0.671573 12 1.5V4ZM6.00003 2V4H10V2H6.00003Z" fill="#FF0000"/>
<path fill-rule="evenodd" clip-rule="evenodd" d="M1.00003 8H15V18.5C15 19.3284 14.3285 20 13.5 20H2.50003C1.6716 20 1.00003 19.3284 1.00003 18.5V8ZM5 11H3V17H5V11ZM9 11H7V17H9V11ZM11 11H13V17H11V11Z" fill="#FF0000"/>
</svg>
