<svg width="23" height="13" viewBox="0 0 23 13" fill="none" xmlns="http://www.w3.org/2000/svg">
<path d="M7.25 2.75C7.25 1.37109 6.12891 0.25 4.75 0.25C3.37109 0.25 2.25 1.37109 2.25 2.75C2.25 4.12891 3.37109 5.25 4.75 5.25C6.12891 5.25 7.25 4.12891 7.25 2.75ZM0.25 9C0.25 9.69141 0.808594 10.25 1.5 10.25H4.84375C5.23828 8.71094 6.35156 7.45703 7.80469 6.86719C7.42578 6.63281 6.97656 6.5 6.5 6.5H2.75C1.37109 6.5 0.25 7.62109 0.25 9ZM18.2813 10.25H21.5C22.1914 10.25 22.75 9.69141 22.75 9C22.75 7.62109 21.6289 6.5 20.25 6.5H16.5C16.043 6.5 15.6133 6.62109 15.2461 6.83594C16.7344 7.41406 17.8789 8.68359 18.2813 10.25ZM14.2812 7.84375C14.0117 7.78125 13.7266 7.75 13.4375 7.75H9.6875C9.35547 7.75 9.03516 7.79297 8.73047 7.87109C7.52734 8.1875 6.55859 9.08594 6.14844 10.25C6.01172 10.6406 5.93359 11.0625 5.93359 11.5C5.93359 12.1914 6.49219 12.75 7.18359 12.75H15.9336C16.625 12.75 17.1836 12.1914 17.1836 11.5C17.1836 11.0625 17.1094 10.6406 16.9688 10.25C16.5469 9.05078 15.5312 8.13281 14.2773 7.84375H14.2812ZM21 2.75C21 1.37109 19.8789 0.25 18.5 0.25C17.1211 0.25 16 1.37109 16 2.75C16 4.12891 17.1211 5.25 18.5 5.25C19.8789 5.25 21 4.12891 21 2.75ZM11.5625 6.5C13.2891 6.5 14.6875 5.10156 14.6875 3.375C14.6875 1.64844 13.2891 0.25 11.5625 0.25C9.83594 0.25 8.4375 1.64844 8.4375 3.375C8.4375 5.10156 9.83594 6.5 11.5625 6.5Z" fill="#1E40AF"/>
</svg>
